solid Created by Gmsh
facet normal -1 -0 0
  outer loop
    vertex 0 3.39603 4.49475
    vertex 0 0 0
    vertex 0 3.10955 4.87658
  endloop
endfacet
facet normal -1 0 0
  outer loop
    vertex 0 10 10
    vertex 0 6.45171 7.65313
    vertex 0 6.06021 7.92705
  endloop
endfacet
facet normal -1 0 0
  outer loop
    vertex 0 10 0
    vertex 0 6.4252 4.32038
    vertex 0 6.74156 4.65112
  endloop
endfacet
facet normal -1 0 -0
  outer loop
    vertex 0 6.4252 4.32038
    vertex 0 10 0
    vertex 0 6.03173 4.05395
  endloop
endfacet
facet normal -1 -0 0
  outer loop
    vertex 0 3.10955 4.87658
    vertex 0 0 0
    vertex 0 2.91223 5.31104
  endloop
endfacet
facet normal -1 0 0
  outer loop
    vertex 0 10 0
    vertex 0 6.74156 4.65112
    vertex 0 6.98217 5.0392
  endloop
endfacet
facet normal -1 0 0
  outer loop
    vertex 0 10 10
    vertex 0 6.06021 7.92705
    vertex 0 5.61907 8.10992
  endloop
endfacet
facet normal -1 0 -0
  outer loop
    vertex 0 6.03173 4.05395
    vertex 0 10 0
    vertex 0 5.58859 3.87777
  endloop
endfacet
facet normal -1 -0 0
  outer loop
    vertex 0 2.91223 5.31104
    vertex 0 0 0
    vertex 0 2.81324 5.77772
  endloop
endfacet
facet normal -1 0 0
  outer loop
    vertex 0 10 0
    vertex 0 6.98217 5.0392
    vertex 0 7.14142 5.48471
  endloop
endfacet
facet normal -1 0 0
  outer loop
    vertex 0 10 10
    vertex 0 5.61907 8.10992
    vertex 0 5.1491 8.19326
  endloop
endfacet
facet normal -1 0 -0
  outer loop
    vertex 0 5.58859 3.87777
    vertex 0 10 0
    vertex 0 5.117 3.80118
  endloop
endfacet
facet normal -1 0 0
  outer loop
    vertex 0 10 0
    vertex 0 7.14142 5.48471
    vertex 0 7.20178 5.95649
  endloop
endfacet
facet normal -1 0 -0
  outer loop
    vertex 0 4.17949 3.95779
    vertex 0 4.63968 3.82825
    vertex 0 0 0
  endloop
endfacet
facet normal -1 0 -0
  outer loop
    vertex 0 4.63968 3.82825
    vertex 0 5.117 3.80118
    vertex 0 0 0
  endloop
endfacet
facet normal -1 0 -0
  outer loop
    vertex 0 5.117 3.80118
    vertex 0 10 0
    vertex 0 0 0
  endloop
endfacet
facet normal -1 -0 0
  outer loop
    vertex 0 5.1491 8.19326
    vertex 0 4.67237 8.17332
    vertex 0 0 10
  endloop
endfacet
facet normal -1 -0 0
  outer loop
    vertex 0 4.67237 8.17332
    vertex 0 4.21125 8.05109
    vertex 0 0 10
  endloop
endfacet
facet normal -1 0 0
  outer loop
    vertex 0 7.20178 5.95649
    vertex 0 7.15904 6.4317
    vertex 0 10 10
  endloop
endfacet
facet normal -1 -0 0
  outer loop
    vertex 0 4.21125 8.05109
    vertex 0 3.78736 7.83236
    vertex 0 0 10
  endloop
endfacet
facet normal -1 0 0
  outer loop
    vertex 0 7.15904 6.4317
    vertex 0 7.01454 6.88721
    vertex 0 10 10
  endloop
endfacet
facet normal -1 -0 0
  outer loop
    vertex 0 3.78736 7.83236
    vertex 0 3.42059 7.52742
    vertex 0 0 10
  endloop
endfacet
facet normal -1 -0 0
  outer loop
    vertex 0 3.42059 7.52742
    vertex 0 3.12816 7.1506
    vertex 0 0 10
  endloop
endfacet
facet normal -1 -0 0
  outer loop
    vertex 0 3.12816 7.1506
    vertex 0 2.92383 6.71961
    vertex 0 0 10
  endloop
endfacet
facet normal -1 -0 0
  outer loop
    vertex 0 2.92383 6.71961
    vertex 0 2.81718 6.25471
    vertex 0 0 10
  endloop
endfacet
facet normal -1 0 0
  outer loop
    vertex 0 10 0
    vertex 0 7.20178 5.95649
    vertex 0 10 10
  endloop
endfacet
facet normal -1 -0 0
  outer loop
    vertex 0 2.81718 6.25471
    vertex 0 2.81324 5.77772
    vertex 0 0 10
  endloop
endfacet
facet normal -1 -0 0
  outer loop
    vertex 0 4.17949 3.95779
    vertex 0 0 0
    vertex 0 3.75833 4.18356
  endloop
endfacet
facet normal -1 -0 0
  outer loop
    vertex 0 2.81324 5.77772
    vertex 0 0 0
    vertex 0 0 10
  endloop
endfacet
facet normal -1 -0 0
  outer loop
    vertex 0 10 10
    vertex 0 5.1491 8.19326
    vertex 0 0 10
  endloop
endfacet
facet normal -1 0 0
  outer loop
    vertex 0 10 10
    vertex 0 7.01454 6.88721
    vertex 0 6.77496 7.30096
  endloop
endfacet
facet normal -1 -0 0
  outer loop
    vertex 0 3.75833 4.18356
    vertex 0 0 0
    vertex 0 3.39603 4.49475
  endloop
endfacet
facet normal -1 0 0
  outer loop
    vertex 0 10 10
    vertex 0 6.77496 7.30096
    vertex 0 6.45171 7.65313
  endloop
endfacet
facet normal -0.70456 -0.668236 0.238864
  outer loop
    vertex 0 7.14142 5.48471
    vertex 0 6.98217 5.0392
    vertex 0.2 6.80242 5.12626
  endloop
endfacet
facet normal -0.708962 -0.665393 0.23372
  outer loop
    vertex 0.2 6.95217 5.5526
    vertex 0 7.14142 5.48471
    vertex 0.2 6.80242 5.12626
  endloop
endfacet
facet normal -0.700536 -0.707846 0.0905699
  outer loop
    vertex 0 7.20178 5.95649
    vertex 0 7.14142 5.48471
    vertex 0.2 6.95217 5.5526
  endloop
endfacet
facet normal -0.713117 -0.69675 0.0774823
  outer loop
    vertex 0.2 7.00238 6.00416
    vertex 0 7.20178 5.95649
    vertex 0.2 6.95217 5.5526
  endloop
endfacet
facet normal -0.696859 -0.714325 -0.064249
  outer loop
    vertex 0 7.15904 6.4317
    vertex 0 7.20178 5.95649
    vertex 0.2 7.00238 6.00416
  endloop
endfacet
facet normal -0.716802 -0.692488 -0.0815796
  outer loop
    vertex 0.2 6.94906 6.45677
    vertex 0 7.15904 6.4317
    vertex 0.2 7.00238 6.00416
  endloop
endfacet
facet normal -0.693591 -0.686648 -0.217819
  outer loop
    vertex 0 7.01454 6.88721
    vertex 0 7.15904 6.4317
    vertex 0.2 6.94906 6.45677
  endloop
endfacet
facet normal -0.719998 -0.652895 -0.235224
  outer loop
    vertex 0.2 6.79437 6.88615
    vertex 0 7.01454 6.88721
    vertex 0.2 6.94906 6.45677
  endloop
endfacet
facet normal -0.690772 -0.625737 -0.362336
  outer loop
    vertex 0 6.77496 7.30096
    vertex 0 7.01454 6.88721
    vertex 0.2 6.79437 6.88615
  endloop
endfacet
facet normal -0.722705 -0.580191 -0.375602
  outer loop
    vertex 0.2 6.54627 7.26939
    vertex 0 6.77496 7.30096
    vertex 0.2 6.79437 6.88615
  endloop
endfacet
facet normal -0.688413 -0.534348 -0.490469
  outer loop
    vertex 0 6.45171 7.65313
    vertex 0 6.77496 7.30096
    vertex 0.2 6.54627 7.26939
  endloop
endfacet
facet normal -0.724933 -0.478292 -0.49569
  outer loop
    vertex 0.2 6.21783 7.5863
    vertex 0 6.45171 7.65313
    vertex 0.2 6.54627 7.26939
  endloop
endfacet
facet normal -0.68652 -0.416849 -0.595758
  outer loop
    vertex 0 6.06021 7.92705
    vertex 0 6.45171 7.65313
    vertex 0.2 6.21783 7.5863
  endloop
endfacet
facet normal -0.726699 -0.352543 -0.589595
  outer loop
    vertex 0.2 5.82634 7.82039
    vertex 0 6.06021 7.92705
    vertex 0.2 6.21783 7.5863
  endloop
endfacet
facet normal -0.685087 -0.278947 -0.672937
  outer loop
    vertex 0 5.61907 8.10992
    vertex 0 6.06021 7.92705
    vertex 0.2 5.82634 7.82039
  endloop
endfacet
facet normal -0.684107 -0.127367 -0.718175
  outer loop
    vertex 0.2 5.39227 7.95963
    vertex 0 5.1491 8.19326
    vertex 0 5.61907 8.10992
  endloop
endfacet
facet normal -0.728012 -0.209402 -0.652802
  outer loop
    vertex 0.2 5.39227 7.95963
    vertex 0 5.61907 8.10992
    vertex 0.2 5.82634 7.82039
  endloop
endfacet
facet normal -0.683575 0.0305128 -0.729242
  outer loop
    vertex 0.2 4.93816 7.99696
    vertex 0 4.67237 8.17332
    vertex 0 5.1491 8.19326
  endloop
endfacet
facet normal -0.728885 -0.0561014 -0.682334
  outer loop
    vertex 0.2 4.93816 7.99696
    vertex 0 5.1491 8.19326
    vertex 0.2 5.39227 7.95963
  endloop
endfacet
facet normal -0.729327 0.0996943 -0.676863
  outer loop
    vertex 0.2 4.48753 7.93059
    vertex 0 4.67237 8.17332
    vertex 0.2 4.93816 7.99696
  endloop
endfacet
facet normal -0.683485 0.187028 -0.705598
  outer loop
    vertex 0.2 4.48753 7.93059
    vertex 0 4.21125 8.05109
    vertex 0 4.67237 8.17332
  endloop
endfacet
facet normal -0.729332 0.250247 -0.63675
  outer loop
    vertex 0.2 4.06367 7.76401
    vertex 0 4.21125 8.05109
    vertex 0.2 4.48753 7.93059
  endloop
endfacet
facet normal -0.683833 0.334578 -0.648405
  outer loop
    vertex 0.2 4.06367 7.76401
    vertex 0 3.78736 7.83236
    vertex 0 4.21125 8.05109
  endloop
endfacet
facet normal -0.728896 0.388071 -0.564013
  outer loop
    vertex 0.2 3.68851 7.50588
    vertex 0 3.78736 7.83236
    vertex 0.2 4.06367 7.76401
  endloop
endfacet
facet normal -0.684621 0.465996 -0.560483
  outer loop
    vertex 0.2 3.68851 7.50588
    vertex 0 3.42059 7.52742
    vertex 0 3.78736 7.83236
  endloop
endfacet
facet normal -0.728014 0.506286 -0.462245
  outer loop
    vertex 0.2 3.38148 7.16959
    vertex 0 3.42059 7.52742
    vertex 0.2 3.68851 7.50588
  endloop
endfacet
facet normal -0.685839 0.574937 -0.446176
  outer loop
    vertex 0.2 3.38148 7.16959
    vertex 0 3.12816 7.1506
    vertex 0 3.42059 7.52742
  endloop
endfacet
facet normal -0.687486 0.656185 -0.311102
  outer loop
    vertex 0.2 3.15847 6.77256
    vertex 0 2.92383 6.71961
    vertex 0 3.12816 7.1506
  endloop
endfacet
facet normal -0.726682 0.598957 -0.336427
  outer loop
    vertex 0.2 3.15847 6.77256
    vertex 0 3.12816 7.1506
    vertex 0.2 3.38148 7.16959
  endloop
endfacet
facet normal -0.689552 0.705901 -0.16193
  outer loop
    vertex 0.2 3.03105 6.33537
    vertex 0 2.81718 6.25471
    vertex 0 2.92383 6.71961
  endloop
endfacet
facet normal -0.724884 0.661354 -0.192752
  outer loop
    vertex 0.2 3.03105 6.33537
    vertex 0 2.92383 6.71961
    vertex 0.2 3.15847 6.77256
  endloop
endfacet
facet normal -0.692029 0.721845 -0.005953
  outer loop
    vertex 0.2 3.00583 5.88067
    vertex 0 2.81324 5.77772
    vertex 0 2.81718 6.25471
  endloop
endfacet
facet normal -0.722619 0.690186 -0.0382779
  outer loop
    vertex 0.2 3.00583 5.88067
    vertex 0 2.81718 6.25471
    vertex 0.2 3.03105 6.33537
  endloop
endfacet
facet normal -0.69491 0.703446 0.149212
  outer loop
    vertex 0.2 3.08415 5.43199
    vertex 0 2.91223 5.31104
    vertex 0 2.81324 5.77772
  endloop
endfacet
facet normal -0.719869 0.683771 0.119357
  outer loop
    vertex 0.2 3.08415 5.43199
    vertex 0 2.81324 5.77772
    vertex 0.2 3.00583 5.88067
  endloop
endfacet
facet normal -0.698182 0.651843 0.296044
  outer loop
    vertex 0.2 3.26201 5.01257
    vertex 0 3.10955 4.87658
    vertex 0 2.91223 5.31104
  endloop
endfacet
facet normal -0.716621 0.642116 0.27229
  outer loop
    vertex 0.2 3.26201 5.01257
    vertex 0 2.91223 5.31104
    vertex 0.2 3.08415 5.43199
  endloop
endfacet
facet normal -0.701839 0.569795 0.427498
  outer loop
    vertex 0.2 3.5303 4.64413
    vertex 0 3.39603 4.49475
    vertex 0 3.10955 4.87658
  endloop
endfacet
facet normal -0.712857 0.566928 0.412829
  outer loop
    vertex 0.2 3.5303 4.64413
    vertex 0 3.10955 4.87658
    vertex 0.2 3.26201 5.01257
  endloop
endfacet
facet normal -0.705873 0.461536 0.537334
  outer loop
    vertex 0.2 3.87525 4.34586
    vertex 0 3.75833 4.18356
    vertex 0 3.39603 4.49475
  endloop
endfacet
facet normal -0.708554 0.461551 0.53378
  outer loop
    vertex 0.2 3.87525 4.34586
    vertex 0 3.39603 4.49475
    vertex 0.2 3.5303 4.64413
  endloop
endfacet
facet normal -0.704058 0.335512 0.625886
  outer loop
    vertex 0 4.17949 3.95779
    vertex 0 3.75833 4.18356
    vertex 0.2 3.87525 4.34586
  endloop
endfacet
facet normal -0.710195 0.327823 0.623021
  outer loop
    vertex 0.2 4.27906 4.13338
    vertex 0 4.17949 3.95779
    vertex 0.2 3.87525 4.34586
  endloop
endfacet
facet normal -0.699934 0.193522 0.687489
  outer loop
    vertex 0 4.63968 3.82825
    vertex 0 4.17949 3.95779
    vertex 0.2 4.27906 4.13338
  endloop
endfacet
facet normal -0.714096 0.177039 0.677292
  outer loop
    vertex 0.2 4.72074 4.01793
    vertex 0 4.63968 3.82825
    vertex 0.2 4.27906 4.13338
  endloop
endfacet
facet normal -0.696193 0.0406496 0.716703
  outer loop
    vertex 0 5.117 3.80118
    vertex 0 4.63968 3.82825
    vertex 0.2 4.72074 4.01793
  endloop
endfacet
facet normal -0.71749 0.0187493 0.696316
  outer loop
    vertex 0.2 5.17709 4.00564
    vertex 0 5.117 3.80118
    vertex 0.2 4.72074 4.01793
  endloop
endfacet
facet normal -0.692879 -0.115598 0.711728
  outer loop
    vertex 0 5.58859 3.87777
    vertex 0 5.117 3.80118
    vertex 0.2 5.17709 4.00564
  endloop
endfacet
facet normal -0.720382 -0.138976 0.679512
  outer loop
    vertex 0.2 5.62397 4.09704
    vertex 0 5.58859 3.87777
    vertex 0.2 5.17709 4.00564
  endloop
endfacet
facet normal -0.690045 -0.267392 0.672562
  outer loop
    vertex 0 6.03173 4.05395
    vertex 0 5.58859 3.87777
    vertex 0.2 5.62397 4.09704
  endloop
endfacet
facet normal -0.72276 -0.288128 0.628172
  outer loop
    vertex 0.2 6.03763 4.28677
    vertex 0 6.03173 4.05395
    vertex 0.2 5.62397 4.09704
  endloop
endfacet
facet normal -0.687748 -0.40703 0.601106
  outer loop
    vertex 0 6.4252 4.32038
    vertex 0 6.03173 4.05395
    vertex 0.2 6.03763 4.28677
  endloop
endfacet
facet normal -0.72461 -0.421224 0.545445
  outer loop
    vertex 0.2 6.39627 4.56374
    vertex 0 6.4252 4.32038
    vertex 0.2 6.03763 4.28677
  endloop
endfacet
facet normal -0.687059 -0.525078 0.502238
  outer loop
    vertex 0 6.74156 4.65112
    vertex 0 6.4252 4.32038
    vertex 0.2 6.39627 4.56374
  endloop
endfacet
facet normal -0.714366 -0.529557 0.45744
  outer loop
    vertex 0.2 6.62403 4.8274
    vertex 0 6.74156 4.65112
    vertex 0.2 6.39627 4.56374
  endloop
endfacet
facet normal -0.693979 -0.611925 0.379395
  outer loop
    vertex 0 6.98217 5.0392
    vertex 0 6.74156 4.65112
    vertex 0.2 6.62403 4.8274
  endloop
endfacet
facet normal -0.705275 -0.608741 0.363346
  outer loop
    vertex 0.2 6.80242 5.12626
    vertex 0 6.98217 5.0392
    vertex 0.2 6.62403 4.8274
  endloop
endfacet
facet normal 0 -1 -0
  outer loop
    vertex 2 0 2
    vertex 0 0 0
    vertex 10 0 0
  endloop
endfacet
facet normal 0 -1 0
  outer loop
    vertex 0 0 0
    vertex 2 0 2
    vertex 0 0 10
  endloop
endfacet
facet normal 0 -1 0
  outer loop
    vertex 0 0 10
    vertex 2 0 2
    vertex 2 0 10
  endloop
endfacet
facet normal 0 -1 0
  outer loop
    vertex 2 0 2
    vertex 10 0 0
    vertex 10 0 2
  endloop
endfacet
facet normal 0 0 1
  outer loop
    vertex 0 10 10
    vertex 0 0 10
    vertex 2 0 10
  endloop
endfacet
facet normal 0 0 1
  outer loop
    vertex 2 10 10
    vertex 0 10 10
    vertex 2 0 10
  endloop
endfacet
facet normal 0 0 -1
  outer loop
    vertex 4.44437 6.55563 0
    vertex 0 10 0
    vertex 4.9 6.90526 0
  endloop
endfacet
facet normal -0 0 -1
  outer loop
    vertex 4.44437 3.44437 0
    vertex 0 0 0
    vertex 4.09474 3.9 0
  endloop
endfacet
facet normal 0 0 -1
  outer loop
    vertex 0 0 0
    vertex 4.44437 3.44437 0
    vertex 4.9 3.09474 0
  endloop
endfacet
facet normal 0 0 -1
  outer loop
    vertex 10 0 0
    vertex 7.90526 3.9 0
    vertex 8.12504 4.4306 0
  endloop
endfacet
facet normal 0 0 -1
  outer loop
    vertex 0 0 0
    vertex 4.9 3.09474 0
    vertex 5.4306 2.87496 0
  endloop
endfacet
facet normal -0 0 -1
  outer loop
    vertex 4.09474 3.9 0
    vertex 0 0 0
    vertex 3.87496 4.4306 0
  endloop
endfacet
facet normal 0 0 -1
  outer loop
    vertex 4.9 6.90526 0
    vertex 0 10 0
    vertex 5.4306 7.12504 0
  endloop
endfacet
facet normal 7.80745e-17 -1.47477e-16 -1
  outer loop
    vertex 0 0 0
    vertex 5.4306 2.87496 0
    vertex 6 2.8 5.55112e-17
  endloop
endfacet
facet normal -0 0 -1
  outer loop
    vertex 3.87496 4.4306 0
    vertex 0 0 0
    vertex 3.8 5 0
  endloop
endfacet
facet normal 1.7571e-16 7.43578e-17 -1
  outer loop
    vertex 10 0 0
    vertex 8.12504 4.4306 0
    vertex 8.2 5 5.55112e-17
  endloop
endfacet
facet normal 0 0 -1
  outer loop
    vertex 5.4306 7.12504 0
    vertex 0 10 0
    vertex 6 7.2 0
  endloop
endfacet
facet normal -8.42542e-17 -1.00538e-16 -1
  outer loop
    vertex 6 2.8 5.55112e-17
    vertex 6.5694 2.87496 0
    vertex 10 0 0
  endloop
endfacet
facet normal 0 1.98254e-17 -1
  outer loop
    vertex 0 0 0
    vertex 6 2.8 5.55112e-17
    vertex 10 0 0
  endloop
endfacet
facet normal -0 0 -1
  outer loop
    vertex 3.87496 5.5694 0
    vertex 3.8 5 0
    vertex 0 10 0
  endloop
endfacet
facet normal -0 0 -1
  outer loop
    vertex 3.8 5 0
    vertex 0 0 0
    vertex 0 10 0
  endloop
endfacet
facet normal 1.7571e-16 -7.43578e-17 -1
  outer loop
    vertex 8.2 5 5.55112e-17
    vertex 8.12504 5.5694 0
    vertex 10 10 0
  endloop
endfacet
facet normal 0 0 -1
  outer loop
    vertex 8.12504 5.5694 0
    vertex 7.90526 6.1 0
    vertex 10 10 0
  endloop
endfacet
facet normal 0 0 -1
  outer loop
    vertex 3.87496 5.5694 0
    vertex 0 10 0
    vertex 4.09474 6.1 0
  endloop
endfacet
facet normal 0 0 -1
  outer loop
    vertex 7.90526 6.1 0
    vertex 7.55563 6.55563 0
    vertex 10 10 0
  endloop
endfacet
facet normal 0 0 -1
  outer loop
    vertex 7.55563 6.55563 0
    vertex 7.1 6.90526 0
    vertex 10 10 0
  endloop
endfacet
facet normal 0 0 -1
  outer loop
    vertex 7.1 6.90526 0
    vertex 6.5694 7.12504 0
    vertex 10 10 0
  endloop
endfacet
facet normal 0 0 -1
  outer loop
    vertex 6.5694 7.12504 0
    vertex 6 7.2 0
    vertex 10 10 0
  endloop
endfacet
facet normal -3.08395e-17 0 -1
  outer loop
    vertex 10 0 0
    vertex 8.2 5 5.55112e-17
    vertex 10 10 0
  endloop
endfacet
facet normal 0 0 -1
  outer loop
    vertex 10 0 0
    vertex 6.5694 2.87496 0
    vertex 7.1 3.09474 0
  endloop
endfacet
facet normal 0 0 -1
  outer loop
    vertex 6 7.2 0
    vertex 0 10 0
    vertex 10 10 0
  endloop
endfacet
facet normal 0 0 -1
  outer loop
    vertex 10 0 0
    vertex 7.1 3.09474 0
    vertex 7.55563 3.44437 0
  endloop
endfacet
facet normal 0 0 -1
  outer loop
    vertex 4.09474 6.1 0
    vertex 0 10 0
    vertex 4.44437 6.55563 0
  endloop
endfacet
facet normal 0 0 -1
  outer loop
    vertex 10 0 0
    vertex 7.55563 3.44437 0
    vertex 7.90526 3.9 0
  endloop
endfacet
facet normal 0 1 0
  outer loop
    vertex 10 10 0
    vertex 0 10 0
    vertex 2 10 2
  endloop
endfacet
facet normal 0 1 0
  outer loop
    vertex 0 10 10
    vertex 2 10 2
    vertex 0 10 0
  endloop
endfacet
facet normal 0 1 0
  outer loop
    vertex 2 10 10
    vertex 2 10 2
    vertex 0 10 10
  endloop
endfacet
facet normal 0 1 0
  outer loop
    vertex 10 10 2
    vertex 10 10 0
    vertex 2 10 2
  endloop
endfacet
facet normal 0.00132789 -0.943158 0.332342
  outer loop
    vertex 0.2 6.80242 5.12626
    vertex 1.8 6.80416 5.12481
    vertex 1.8 6.95301 5.54725
  endloop
endfacet
facet normal 0.00160648 -0.943489 0.331401
  outer loop
    vertex 0.2 6.95217 5.5526
    vertex 0.2 6.80242 5.12626
    vertex 1.8 6.95301 5.54725
  endloop
endfacet
facet normal 0.00173929 -0.993872 0.110524
  outer loop
    vertex 0.2 7.00238 6.00416
    vertex 0.2 6.95217 5.5526
    vertex 1.8 7.00413 5.99469
  endloop
endfacet
facet normal 0.000904455 -0.993537 0.113506
  outer loop
    vertex 0.2 6.95217 5.5526
    vertex 1.8 6.95301 5.54725
    vertex 1.8 7.00413 5.99469
  endloop
endfacet
facet normal 0.00180566 -0.993131 -0.116997
  outer loop
    vertex 0.2 6.94906 6.45677
    vertex 0.2 7.00238 6.00416
    vertex 1.8 6.95352 6.44362
  endloop
endfacet
facet normal 0.000422759 -0.993705 -0.112026
  outer loop
    vertex 0.2 7.00238 6.00416
    vertex 1.8 7.00413 5.99469
    vertex 1.8 6.95352 6.44362
  endloop
endfacet
facet normal 0.00181424 -0.940802 -0.338951
  outer loop
    vertex 0.2 6.79437 6.88615
    vertex 0.2 6.94906 6.45677
    vertex 1.8 6.80315 6.87034
  endloop
endfacet
facet normal -0.000104401 -0.943154 -0.332357
  outer loop
    vertex 0.2 6.94906 6.45677
    vertex 1.8 6.95352 6.44362
    vertex 1.8 6.80315 6.87034
  endloop
endfacet
facet normal 0.00177687 -0.839447 -0.543438
  outer loop
    vertex 0.2 6.54627 7.26939
    vertex 0.2 6.79437 6.88615
    vertex 1.8 6.5606 7.25249
  endloop
endfacet
facet normal -0.000661371 -0.844293 -0.535882
  outer loop
    vertex 0.2 6.79437 6.88615
    vertex 1.8 6.80315 6.87034
    vertex 1.8 6.5606 7.25249
  endloop
endfacet
facet normal 0.00171025 -0.694365 -0.719621
  outer loop
    vertex 0.2 6.21783 7.5863
    vertex 0.2 6.54627 7.26939
    vertex 1.8 6.23841 7.57025
  endloop
endfacet
facet normal -0.00123303 -0.702196 -0.711982
  outer loop
    vertex 0.2 6.54627 7.26939
    vertex 1.8 6.5606 7.25249
    vertex 1.8 6.23841 7.57025
  endloop
endfacet
facet normal 0.00163044 -0.513195 -0.85827
  outer loop
    vertex 0.2 5.82634 7.82039
    vertex 0.2 6.21783 7.5863
    vertex 1.8 5.85324 7.80735
  endloop
endfacet
facet normal -0.00180189 -0.524207 -0.851589
  outer loop
    vertex 0.2 6.21783 7.5863
    vertex 1.8 6.23841 7.57025
    vertex 1.8 5.85324 7.80735
  endloop
endfacet
facet normal 0.0015555 -0.305444 -0.952209
  outer loop
    vertex 0.2 5.39227 7.95963
    vertex 0.2 5.82634 7.82039
    vertex 1.8 5.42488 7.95178
  endloop
endfacet
facet normal -0.00235306 -0.319506 -0.947581
  outer loop
    vertex 0.2 5.82634 7.82039
    vertex 1.8 5.85324 7.80735
    vertex 1.8 5.42488 7.95178
  endloop
endfacet
facet normal -0.00287114 -0.0985907 -0.995124
  outer loop
    vertex 0.2 5.39227 7.95963
    vertex 1.8 5.42488 7.95178
    vertex 1.8 4.97522 7.99633
  endloop
endfacet
facet normal 0.00150269 -0.0819434 -0.996636
  outer loop
    vertex 0.2 5.39227 7.95963
    vertex 1.8 4.97522 7.99633
    vertex 0.2 4.93816 7.99696
  endloop
endfacet
facet normal -0.00334221 0.127274 -0.991862
  outer loop
    vertex 0.2 4.93816 7.99696
    vertex 1.8 4.97522 7.99633
    vertex 1.8 4.52717 7.93883
  endloop
endfacet
facet normal 0.0014871 0.145716 -0.989325
  outer loop
    vertex 0.2 4.93816 7.99696
    vertex 1.8 4.52717 7.93883
    vertex 0.2 4.48753 7.93059
  endloop
endfacet
facet normal -0.00375481 0.346607 -0.938003
  outer loop
    vertex 0.2 4.48753 7.93059
    vertex 1.8 4.52717 7.93883
    vertex 1.8 4.10351 7.78228
  endloop
endfacet
facet normal 0.00152169 0.365772 -0.930703
  outer loop
    vertex 0.2 4.48753 7.93059
    vertex 1.8 4.10351 7.78228
    vertex 0.2 4.06367 7.76401
  endloop
endfacet
facet normal -0.00409946 0.548245 -0.836308
  outer loop
    vertex 0.2 4.06367 7.76401
    vertex 1.8 4.10351 7.78228
    vertex 1.8 3.7258 7.53467
  endloop
endfacet
facet normal 0.00161581 0.566838 -0.823828
  outer loop
    vertex 0.2 4.06367 7.76401
    vertex 1.8 3.7258 7.53467
    vertex 0.2 3.68851 7.50588
  endloop
endfacet
facet normal -0.00436992 0.721906 -0.691978
  outer loop
    vertex 0.2 3.68851 7.50588
    vertex 1.8 3.7258 7.53467
    vertex 1.8 3.41327 7.20864
  endloop
endfacet
facet normal 0.00177648 0.738496 -0.674255
  outer loop
    vertex 0.2 3.68851 7.50588
    vertex 1.8 3.41327 7.20864
    vertex 0.2 3.38148 7.16959
  endloop
endfacet
facet normal -0.0045641 0.858761 -0.512356
  outer loop
    vertex 0.2 3.38148 7.16959
    vertex 1.8 3.41327 7.20864
    vertex 1.8 3.18188 6.82079
  endloop
endfacet
facet normal 0.00200641 0.871876 -0.489722
  outer loop
    vertex 0.2 3.38148 7.16959
    vertex 1.8 3.18188 6.82079
    vertex 0.2 3.15847 6.77256
  endloop
endfacet
facet normal -0.00468197 0.951822 -0.306616
  outer loop
    vertex 0.2 3.15847 6.77256
    vertex 1.8 3.18188 6.82079
    vertex 1.8 3.0434 6.39091
  endloop
endfacet
facet normal 0.00230462 0.960053 -0.279808
  outer loop
    vertex 0.2 3.15847 6.77256
    vertex 1.8 3.0434 6.39091
    vertex 0.2 3.03105 6.33537
  endloop
endfacet
facet normal -0.00472956 0.996349 -0.0852375
  outer loop
    vertex 0.2 3.03105 6.33537
    vertex 1.8 3.0434 6.39091
    vertex 1.8 3.0049 5.94092
  endloop
endfacet
facet normal 0.00266706 0.998462 -0.0553749
  outer loop
    vertex 0.2 3.03105 6.33537
    vertex 1.8 3.0049 5.94092
    vertex 0.2 3.00583 5.88067
  endloop
endfacet
facet normal -0.00471439 0.990068 0.140507
  outer loop
    vertex 0.2 3.00583 5.88067
    vertex 1.8 3.0049 5.94092
    vertex 1.8 3.06836 5.49374
  endloop
endfacet
facet normal 0.0030852 0.9851 0.171956
  outer loop
    vertex 0.2 3.00583 5.88067
    vertex 1.8 3.06836 5.49374
    vertex 0.2 3.08415 5.43199
  endloop
endfacet
facet normal -0.00464801 0.933287 0.359102
  outer loop
    vertex 0.2 3.08415 5.43199
    vertex 1.8 3.06836 5.49374
    vertex 1.8 3.23059 5.07212
  endloop
endfacet
facet normal 0.00354874 0.920639 0.390398
  outer loop
    vertex 0.2 3.08415 5.43199
    vertex 1.8 3.23059 5.07212
    vertex 0.2 3.26201 5.01257
  endloop
endfacet
facet normal -0.00454485 0.828869 0.559424
  outer loop
    vertex 0.2 3.26201 5.01257
    vertex 1.8 3.23059 5.07212
    vertex 1.8 3.48339 4.69755
  endloop
endfacet
facet normal 0.00404435 0.808378 0.58865
  outer loop
    vertex 0.2 3.26201 5.01257
    vertex 1.8 3.48339 4.69755
    vertex 0.2 3.5303 4.64413
  endloop
endfacet
facet normal -0.00441997 0.68208 0.731264
  outer loop
    vertex 0.2 3.5303 4.64413
    vertex 1.8 3.48339 4.69755
    vertex 1.8 3.81401 4.38917
  endloop
endfacet
facet normal 0.00455631 0.654067 0.756423
  outer loop
    vertex 0.2 3.5303 4.64413
    vertex 1.8 3.81401 4.38917
    vertex 0.2 3.87525 4.34586
  endloop
endfacet
facet normal -0.00428869 0.500348 0.865814
  outer loop
    vertex 0.2 3.87525 4.34586
    vertex 1.8 3.81401 4.38917
    vertex 1.8 4.20567 4.16283
  endloop
endfacet
facet normal 0.00506699 0.465648 0.884956
  outer loop
    vertex 0.2 3.87525 4.34586
    vertex 1.8 4.20567 4.16283
    vertex 0.2 4.27906 4.13338
  endloop
endfacet
facet normal -0.00416579 0.292927 0.956126
  outer loop
    vertex 0.2 4.27906 4.13338
    vertex 1.8 4.20567 4.16283
    vertex 1.8 4.63838 4.03027
  endloop
endfacet
facet normal 0.00555664 0.252892 0.967479
  outer loop
    vertex 0.2 4.27906 4.13338
    vertex 1.8 4.63838 4.03027
    vertex 0.2 4.72074 4.01793
  endloop
endfacet
facet normal -0.00406523 0.0704616 0.997506
  outer loop
    vertex 0.2 4.72074 4.01793
    vertex 1.8 4.63838 4.03027
    vertex 1.8 5.08985 3.99838
  endloop
endfacet
facet normal 0.00600621 0.0269163 0.99962
  outer loop
    vertex 0.2 4.72074 4.01793
    vertex 1.8 5.08985 3.99838
    vertex 0.2 5.17709 4.00564
  endloop
endfacet
facet normal -0.00399671 -0.155545 0.987821
  outer loop
    vertex 0.2 5.17709 4.00564
    vertex 1.8 5.08985 3.99838
    vertex 1.8 5.53662 4.06873
  endloop
endfacet
facet normal 0.00639608 -0.200371 0.979699
  outer loop
    vertex 0.2 5.17709 4.00564
    vertex 1.8 5.53662 4.06873
    vertex 0.2 5.62397 4.09704
  endloop
endfacet
facet normal -0.0039659 -0.373319 0.927695
  outer loop
    vertex 0.2 5.62397 4.09704
    vertex 1.8 5.53662 4.06873
    vertex 1.8 5.95539 4.23724
  endloop
endfacet
facet normal 0.00670656 -0.416903 0.908926
  outer loop
    vertex 0.2 5.62397 4.09704
    vertex 1.8 5.95539 4.23724
    vertex 0.2 6.03763 4.28677
  endloop
endfacet
facet normal -0.00397446 -0.571499 0.820593
  outer loop
    vertex 0.2 6.03763 4.28677
    vertex 1.8 5.95539 4.23724
    vertex 1.8 6.3244 4.49424
  endloop
endfacet
facet normal 0.0069205 -0.6112 0.791446
  outer loop
    vertex 0.2 6.03763 4.28677
    vertex 1.8 6.3244 4.49424
    vertex 0.2 6.39627 4.56374
  endloop
endfacet
facet normal -0.00326169 -0.731683 0.681637
  outer loop
    vertex 0.2 6.39627 4.56374
    vertex 1.8 6.3244 4.49424
    vertex 1.8 6.59605 4.78584
  endloop
endfacet
facet normal 0.00374731 -0.75675 0.653693
  outer loop
    vertex 0.2 6.39627 4.56374
    vertex 1.8 6.59605 4.78584
    vertex 0.2 6.62403 4.8274
  endloop
endfacet
facet normal 0.00140022 -0.858671 0.512524
  outer loop
    vertex 0.2 6.80242 5.12626
    vertex 0.2 6.62403 4.8274
    vertex 1.8 6.80416 5.12481
  endloop
endfacet
facet normal -0.00131179 -0.852209 0.523201
  outer loop
    vertex 0.2 6.62403 4.8274
    vertex 1.8 6.59605 4.78584
    vertex 1.8 6.80416 5.12481
  endloop
endfacet
facet normal 1 0 0
  outer loop
    vertex 10 0 0
    vertex 10 10 0
    vertex 10 10 2
  endloop
endfacet
facet normal 1 -0 0
  outer loop
    vertex 10 0 2
    vertex 10 0 0
    vertex 10 10 2
  endloop
endfacet
facet normal 0 0 1
  outer loop
    vertex 8.12504 4.4306 2
    vertex 7.90526 3.9 2
    vertex 10 0 2
  endloop
endfacet
facet normal 0 0 1
  outer loop
    vertex 5.4306 7.12504 2
    vertex 2 10 2
    vertex 4.9 6.90526 2
  endloop
endfacet
facet normal 0 0 1
  outer loop
    vertex 8.2 5 2
    vertex 8.12504 4.4306 2
    vertex 10 0 2
  endloop
endfacet
facet normal 0 0 1
  outer loop
    vertex 4.09474 3.9 2
    vertex 2 0 2
    vertex 4.44437 3.44437 2
  endloop
endfacet
facet normal 0 0 1
  outer loop
    vertex 4.9 3.09474 2
    vertex 4.44437 3.44437 2
    vertex 2 0 2
  endloop
endfacet
facet normal 0 0 1
  outer loop
    vertex 6 7.2 2
    vertex 2 10 2
    vertex 5.4306 7.12504 2
  endloop
endfacet
facet normal 0 0 1
  outer loop
    vertex 5.4306 2.87496 2
    vertex 4.9 3.09474 2
    vertex 2 0 2
  endloop
endfacet
facet normal 0 0 1
  outer loop
    vertex 3.87496 4.4306 2
    vertex 2 0 2
    vertex 4.09474 3.9 2
  endloop
endfacet
facet normal 0 0 1
  outer loop
    vertex 3.8 5 2
    vertex 2 0 2
    vertex 3.87496 4.4306 2
  endloop
endfacet
facet normal 0 0 1
  outer loop
    vertex 6 2.8 2
    vertex 5.4306 2.87496 2
    vertex 2 0 2
  endloop
endfacet
facet normal 0 0 1
  outer loop
    vertex 10 10 2
    vertex 8.12504 5.5694 2
    vertex 8.2 5 2
  endloop
endfacet
facet normal 0 0 1
  outer loop
    vertex 10 10 2
    vertex 7.90526 6.1 2
    vertex 8.12504 5.5694 2
  endloop
endfacet
facet normal 0 0 1
  outer loop
    vertex 10 0 2
    vertex 6.5694 2.87496 2
    vertex 6 2.8 2
  endloop
endfacet
facet normal 0 0 1
  outer loop
    vertex 10 10 2
    vertex 7.55563 6.55563 2
    vertex 7.90526 6.1 2
  endloop
endfacet
facet normal 0 0 1
  outer loop
    vertex 10 10 2
    vertex 7.1 6.90526 2
    vertex 7.55563 6.55563 2
  endloop
endfacet
facet normal 0 0 1
  outer loop
    vertex 10 10 2
    vertex 6.5694 7.12504 2
    vertex 7.1 6.90526 2
  endloop
endfacet
facet normal 0 0 1
  outer loop
    vertex 10 10 2
    vertex 6 7.2 2
    vertex 6.5694 7.12504 2
  endloop
endfacet
facet normal 0 0 1
  outer loop
    vertex 10 0 2
    vertex 6 2.8 2
    vertex 2 0 2
  endloop
endfacet
facet normal 0 0 1
  outer loop
    vertex 10 10 2
    vertex 8.2 5 2
    vertex 10 0 2
  endloop
endfacet
facet normal 0 0 1
  outer loop
    vertex 10 10 2
    vertex 2 10 2
    vertex 6 7.2 2
  endloop
endfacet
facet normal 0 0 1
  outer loop
    vertex 7.1 3.09474 2
    vertex 6.5694 2.87496 2
    vertex 10 0 2
  endloop
endfacet
facet normal 0 0 1
  outer loop
    vertex 7.55563 3.44437 2
    vertex 7.1 3.09474 2
    vertex 10 0 2
  endloop
endfacet
facet normal 0 0 1
  outer loop
    vertex 7.90526 3.9 2
    vertex 7.55563 3.44437 2
    vertex 10 0 2
  endloop
endfacet
facet normal 0 0 1
  outer loop
    vertex 2 10 2
    vertex 4.44437 6.55563 2
    vertex 4.9 6.90526 2
  endloop
endfacet
facet normal 0 0 1
  outer loop
    vertex 2 10 2
    vertex 4.09474 6.1 2
    vertex 4.44437 6.55563 2
  endloop
endfacet
facet normal 0 0 1
  outer loop
    vertex 2 10 2
    vertex 3.87496 5.5694 2
    vertex 4.09474 6.1 2
  endloop
endfacet
facet normal 0 0 1
  outer loop
    vertex 2 10 2
    vertex 3.8 5 2
    vertex 3.87496 5.5694 2
  endloop
endfacet
facet normal 0 0 1
  outer loop
    vertex 2 10 2
    vertex 2 0 2
    vertex 3.8 5 2
  endloop
endfacet
facet normal 1 -0 0
  outer loop
    vertex 2 6.08285 7.91386
    vertex 2 6.4689 7.63803
    vertex 2 10 10
  endloop
endfacet
facet normal 1 -0 0
  outer loop
    vertex 2 6.35751 4.26172
    vertex 2 10 2
    vertex 2 6.69493 4.58854
  endloop
endfacet
facet normal 1 0 0
  outer loop
    vertex 2 0 2
    vertex 2 3.35308 4.54263
    vertex 2 3.08003 4.93005
  endloop
endfacet
facet normal 1 0 0
  outer loop
    vertex 2 0 2
    vertex 2 3.70297 4.22254
    vertex 2 3.35308 4.54263
  endloop
endfacet
facet normal 1 0 0
  outer loop
    vertex 2 0 2
    vertex 2 4.11357 3.98476
    vertex 2 3.70297 4.22254
  endloop
endfacet
facet normal 1 0 0
  outer loop
    vertex 2 0 2
    vertex 2 4.56581 3.84051
    vertex 2 4.11357 3.98476
  endloop
endfacet
facet normal 1 0 0
  outer loop
    vertex 2 6.85335 4.80421
    vertex 2 6.69493 4.58854
    vertex 2 10 2
  endloop
endfacet
facet normal 1 0 0
  outer loop
    vertex 2 0 2
    vertex 2 5.03854 3.79662
    vertex 2 4.56581 3.84051
  endloop
endfacet
facet normal 1 0 0
  outer loop
    vertex 2 0 2
    vertex 2 10 2
    vertex 2 5.03854 3.79662
  endloop
endfacet
facet normal 1 0 0
  outer loop
    vertex 2 6.98441 5.03752
    vertex 2 6.85335 4.80421
    vertex 2 10 2
  endloop
endfacet
facet normal 1 -0 0
  outer loop
    vertex 2 5.95614 4.0129
    vertex 2 10 2
    vertex 2 6.35751 4.26172
  endloop
endfacet
facet normal 1 -0 0
  outer loop
    vertex 2 5.64688 8.10043
    vertex 2 6.08285 7.91386
    vertex 2 10 10
  endloop
endfacet
facet normal 1 0 0
  outer loop
    vertex 2 2.89634 5.36681
    vertex 2 0 2
    vertex 2 3.08003 4.93005
  endloop
endfacet
facet normal 1 0 0
  outer loop
    vertex 2 7.14284 5.47978
    vertex 2 6.98441 5.03752
    vertex 2 10 2
  endloop
endfacet
facet normal 1 -0 0
  outer loop
    vertex 2 5.50943 3.85512
    vertex 2 10 2
    vertex 2 5.95614 4.0129
  endloop
endfacet
facet normal 1 -0 0
  outer loop
    vertex 2 5.1813 8.18923
    vertex 2 5.64688 8.10043
    vertex 2 10 10
  endloop
endfacet
facet normal 1 0 0
  outer loop
    vertex 2 2.81044 5.83266
    vertex 2 0 2
    vertex 2 2.89634 5.36681
  endloop
endfacet
facet normal 1 0 0
  outer loop
    vertex 2 7.20382 5.94811
    vertex 2 7.14284 5.47978
    vertex 2 10 2
  endloop
endfacet
facet normal 1 -0 0
  outer loop
    vertex 2 5.03854 3.79662
    vertex 2 10 2
    vertex 2 5.50943 3.85512
  endloop
endfacet
facet normal 1 0 0
  outer loop
    vertex 2 10 10
    vertex 2 7.16315 6.42013
    vertex 2 7.20382 5.94811
  endloop
endfacet
facet normal 1 0 0
  outer loop
    vertex 2 10 10
    vertex 2 7.02206 6.87318
    vertex 2 7.16315 6.42013
  endloop
endfacet
facet normal 1 0 0
  outer loop
    vertex 2 0 10
    vertex 2 4.70766 8.17626
    vertex 2 5.1813 8.18923
  endloop
endfacet
facet normal 1 0 0
  outer loop
    vertex 2 0 10
    vertex 2 4.24789 8.06222
    vertex 2 4.70766 8.17626
  endloop
endfacet
facet normal 1 0 0
  outer loop
    vertex 2 0 10
    vertex 2 3.82323 7.85242
    vertex 2 4.24789 8.06222
  endloop
endfacet
facet normal 1 0 0
  outer loop
    vertex 2 0 10
    vertex 2 3.45333 7.5566
    vertex 2 3.82323 7.85242
  endloop
endfacet
facet normal 1 0 0
  outer loop
    vertex 2 10 10
    vertex 2 7.20382 5.94811
    vertex 2 10 2
  endloop
endfacet
facet normal 1 0 0
  outer loop
    vertex 2 0 10
    vertex 2 3.15533 7.18847
    vertex 2 3.45333 7.5566
  endloop
endfacet
facet normal 1 0 0
  outer loop
    vertex 2 0 10
    vertex 2 2.94302 6.76508
    vertex 2 3.15533 7.18847
  endloop
endfacet
facet normal 1 0 0
  outer loop
    vertex 2 0 10
    vertex 2 2.82625 6.30606
    vertex 2 2.94302 6.76508
  endloop
endfacet
facet normal 1 -0 0
  outer loop
    vertex 2 6.78696 7.28565
    vertex 2 7.02206 6.87318
    vertex 2 10 10
  endloop
endfacet
facet normal 1 0 0
  outer loop
    vertex 2 0 10
    vertex 2 2.81044 5.83266
    vertex 2 2.82625 6.30606
  endloop
endfacet
facet normal 1 -0 0
  outer loop
    vertex 2 0 10
    vertex 2 5.1813 8.18923
    vertex 2 10 10
  endloop
endfacet
facet normal 1 0 0
  outer loop
    vertex 2 0 10
    vertex 2 0 2
    vertex 2 2.81044 5.83266
  endloop
endfacet
facet normal 1 -0 0
  outer loop
    vertex 2 6.4689 7.63803
    vertex 2 6.78696 7.28565
    vertex 2 10 10
  endloop
endfacet
facet normal 0.56339 -0.432305 -0.704062
  outer loop
    vertex 4.44437 6.55563 0
    vertex 4.58579 6.41421 0.2
    vertex 4.26795 6 0.2
  endloop
endfacet
facet normal 0.656083 -0.271758 -0.704062
  outer loop
    vertex 3.87496 5.5694 0
    vertex 4.09474 6.1 0
    vertex 4.06815 5.51764 0.2
  endloop
endfacet
facet normal 0.656082 -0.271758 -0.704062
  outer loop
    vertex 4.09474 6.1 0
    vertex 4.26795 6 0.2
    vertex 4.06815 5.51764 0.2
  endloop
endfacet
facet normal -0.704063 -0.0926913 -0.704062
  outer loop
    vertex 8.2 5 5.55112e-17
    vertex 8 5 0.2
    vertex 7.93185 5.51764 0.2
  endloop
endfacet
facet normal -0.704063 -0.0926909 -0.704063
  outer loop
    vertex 8.12504 5.5694 0
    vertex 8.2 5 5.55112e-17
    vertex 7.93185 5.51764 0.2
  endloop
endfacet
facet normal 0.704063 -0.0926918 -0.704063
  outer loop
    vertex 3.8 5 0
    vertex 3.87496 5.5694 0
    vertex 4 5 0.2
  endloop
endfacet
facet normal 0.704063 -0.0926914 -0.704062
  outer loop
    vertex 3.87496 5.5694 0
    vertex 4.06815 5.51764 0.2
    vertex 4 5 0.2
  endloop
endfacet
facet normal -0.656082 -0.271759 -0.704062
  outer loop
    vertex 7.90526 6.1 0
    vertex 8.12504 5.5694 0
    vertex 7.73205 6 0.2
  endloop
endfacet
facet normal -0.656082 -0.271758 -0.704063
  outer loop
    vertex 8.12504 5.5694 0
    vertex 7.93185 5.51764 0.2
    vertex 7.73205 6 0.2
  endloop
endfacet
facet normal 0.704063 0.0926919 -0.704062
  outer loop
    vertex 3.87496 4.4306 0
    vertex 3.8 5 0
    vertex 4.06815 4.48236 0.2
  endloop
endfacet
facet normal 0.704063 0.0926913 -0.704063
  outer loop
    vertex 3.8 5 0
    vertex 4 5 0.2
    vertex 4.06815 4.48236 0.2
  endloop
endfacet
facet normal -0.563391 -0.432304 -0.704062
  outer loop
    vertex 7.55563 6.55563 0
    vertex 7.90526 6.1 0
    vertex 7.41421 6.41421 0.2
  endloop
endfacet
facet normal 0.656082 0.271758 -0.704062
  outer loop
    vertex 4.09474 3.9 0
    vertex 3.87496 4.4306 0
    vertex 4.26795 4 0.2
  endloop
endfacet
facet normal -0.563391 -0.432305 -0.704062
  outer loop
    vertex 7.90526 6.1 0
    vertex 7.73205 6 0.2
    vertex 7.41421 6.41421 0.2
  endloop
endfacet
facet normal 0.656082 0.271758 -0.704062
  outer loop
    vertex 3.87496 4.4306 0
    vertex 4.06815 4.48236 0.2
    vertex 4.26795 4 0.2
  endloop
endfacet
facet normal 0.563391 0.432305 -0.704062
  outer loop
    vertex 4.09474 3.9 0
    vertex 4.26795 4 0.2
    vertex 4.44437 3.44437 0
  endloop
endfacet
facet normal -0.432305 -0.563391 -0.704062
  outer loop
    vertex 7.1 6.90526 0
    vertex 7.55563 6.55563 0
    vertex 7 6.73205 0.2
  endloop
endfacet
facet normal 0.56339 0.432305 -0.704062
  outer loop
    vertex 4.44437 3.44437 0
    vertex 4.26795 4 0.2
    vertex 4.58579 3.58579 0.2
  endloop
endfacet
facet normal -0.432305 -0.56339 -0.704062
  outer loop
    vertex 7.55563 6.55563 0
    vertex 7.41421 6.41421 0.2
    vertex 7 6.73205 0.2
  endloop
endfacet
facet normal -0.271758 -0.656082 -0.704062
  outer loop
    vertex 7.1 6.90526 0
    vertex 7 6.73205 0.2
    vertex 6.5694 7.12504 0
  endloop
endfacet
facet normal 0.432305 0.56339 -0.704062
  outer loop
    vertex 4.44437 3.44437 0
    vertex 4.58579 3.58579 0.2
    vertex 5 3.26795 0.2
  endloop
endfacet
facet normal 0.432305 0.563391 -0.704062
  outer loop
    vertex 4.9 3.09474 0
    vertex 4.44437 3.44437 0
    vertex 5 3.26795 0.2
  endloop
endfacet
facet normal -0.271758 -0.656082 -0.704062
  outer loop
    vertex 6.5694 7.12504 0
    vertex 7 6.73205 0.2
    vertex 6.51764 6.93185 0.2
  endloop
endfacet
facet normal 0.271758 0.656082 -0.704062
  outer loop
    vertex 4.9 3.09474 0
    vertex 5 3.26795 0.2
    vertex 5.4306 2.87496 0
  endloop
endfacet
facet normal 0.271758 0.656082 -0.704062
  outer loop
    vertex 5.4306 2.87496 0
    vertex 5 3.26795 0.2
    vertex 5.48236 3.06815 0.2
  endloop
endfacet
facet normal -0.0926916 -0.704063 -0.704062
  outer loop
    vertex 6 7.2 0
    vertex 6.5694 7.12504 0
    vertex 6 7 0.2
  endloop
endfacet
facet normal -0.0926914 -0.704063 -0.704062
  outer loop
    vertex 6.5694 7.12504 0
    vertex 6.51764 6.93185 0.2
    vertex 6 7 0.2
  endloop
endfacet
facet normal 0.0926918 0.704063 -0.704062
  outer loop
    vertex 5.4306 2.87496 0
    vertex 5.48236 3.06815 0.2
    vertex 6 2.8 5.55112e-17
  endloop
endfacet
facet normal 0.0926916 0.704063 -0.704063
  outer loop
    vertex 6 2.8 5.55112e-17
    vertex 5.48236 3.06815 0.2
    vertex 6 3 0.2
  endloop
endfacet
facet normal 0.0926916 -0.704063 -0.704062
  outer loop
    vertex 6 7.2 0
    vertex 6 7 0.2
    vertex 5.4306 7.12504 0
  endloop
endfacet
facet normal 0.0926914 -0.704063 -0.704062
  outer loop
    vertex 5.4306 7.12504 0
    vertex 6 7 0.2
    vertex 5.48236 6.93185 0.2
  endloop
endfacet
facet normal 0.271758 -0.656082 -0.704062
  outer loop
    vertex 4.9 6.90526 0
    vertex 5.4306 7.12504 0
    vertex 5 6.73205 0.2
  endloop
endfacet
facet normal 0.271758 -0.656082 -0.704062
  outer loop
    vertex 5.4306 7.12504 0
    vertex 5.48236 6.93185 0.2
    vertex 5 6.73205 0.2
  endloop
endfacet
facet normal 0.432304 -0.563391 -0.704062
  outer loop
    vertex 4.44437 6.55563 0
    vertex 4.9 6.90526 0
    vertex 4.58579 6.41421 0.2
  endloop
endfacet
facet normal 0.432305 -0.563391 -0.704062
  outer loop
    vertex 4.9 6.90526 0
    vertex 5 6.73205 0.2
    vertex 4.58579 6.41421 0.2
  endloop
endfacet
facet normal 0.563391 -0.432305 -0.704062
  outer loop
    vertex 4.09474 6.1 0
    vertex 4.44437 6.55563 0
    vertex 4.26795 6 0.2
  endloop
endfacet
facet normal -0.0926916 0.704063 -0.704063
  outer loop
    vertex 6 2.8 5.55112e-17
    vertex 6 3 0.2
    vertex 6.51764 3.06815 0.2
  endloop
endfacet
facet normal -0.0926918 0.704063 -0.704062
  outer loop
    vertex 6.5694 2.87496 0
    vertex 6 2.8 5.55112e-17
    vertex 6.51764 3.06815 0.2
  endloop
endfacet
facet normal -0.271758 0.656082 -0.704062
  outer loop
    vertex 7.1 3.09474 0
    vertex 6.5694 2.87496 0
    vertex 7 3.26795 0.2
  endloop
endfacet
facet normal -0.271758 0.656082 -0.704062
  outer loop
    vertex 6.5694 2.87496 0
    vertex 6.51764 3.06815 0.2
    vertex 7 3.26795 0.2
  endloop
endfacet
facet normal -0.432304 0.563391 -0.704062
  outer loop
    vertex 7.55563 3.44437 0
    vertex 7.1 3.09474 0
    vertex 7.41421 3.58579 0.2
  endloop
endfacet
facet normal -0.432305 0.563391 -0.704062
  outer loop
    vertex 7.1 3.09474 0
    vertex 7 3.26795 0.2
    vertex 7.41421 3.58579 0.2
  endloop
endfacet
facet normal -0.563391 0.432305 -0.704062
  outer loop
    vertex 7.90526 3.9 0
    vertex 7.55563 3.44437 0
    vertex 7.73205 4 0.2
  endloop
endfacet
facet normal -0.56339 0.432305 -0.704062
  outer loop
    vertex 7.55563 3.44437 0
    vertex 7.41421 3.58579 0.2
    vertex 7.73205 4 0.2
  endloop
endfacet
facet normal -0.656082 0.271758 -0.704063
  outer loop
    vertex 8.12504 4.4306 0
    vertex 7.90526 3.9 0
    vertex 7.93185 4.48236 0.2
  endloop
endfacet
facet normal -0.656082 0.271758 -0.704062
  outer loop
    vertex 7.90526 3.9 0
    vertex 7.73205 4 0.2
    vertex 7.93185 4.48236 0.2
  endloop
endfacet
facet normal -0.704063 0.0926909 -0.704063
  outer loop
    vertex 8.12504 4.4306 0
    vertex 7.93185 4.48236 0.2
    vertex 8.2 5 5.55112e-17
  endloop
endfacet
facet normal -0.704063 0.0926913 -0.704062
  outer loop
    vertex 8.2 5 5.55112e-17
    vertex 7.93185 4.48236 0.2
    vertex 8 5 0.2
  endloop
endfacet
facet normal 0.705564 -0.667131 0.238989
  outer loop
    vertex 1.8 6.80416 5.12481
    vertex 2 6.98441 5.03752
    vertex 2 7.14284 5.47978
  endloop
endfacet
facet normal 0.709676 -0.664482 0.234144
  outer loop
    vertex 1.8 6.80416 5.12481
    vertex 2 7.14284 5.47978
    vertex 1.8 6.95301 5.54725
  endloop
endfacet
facet normal 0.701655 -0.706553 0.0919964
  outer loop
    vertex 1.8 6.95301 5.54725
    vertex 2 7.14284 5.47978
    vertex 2 7.20382 5.94811
  endloop
endfacet
facet normal 0.713534 -0.696093 0.0795247
  outer loop
    vertex 1.8 6.95301 5.54725
    vertex 2 7.20382 5.94811
    vertex 1.8 7.00413 5.99469
  endloop
endfacet
facet normal 0.698013 -0.713441 -0.0614726
  outer loop
    vertex 1.8 7.00413 5.99469
    vertex 2 7.20382 5.94811
    vertex 2 7.16315 6.42013
  endloop
endfacet
facet normal 0.716932 -0.692755 -0.0780984
  outer loop
    vertex 1.8 7.00413 5.99469
    vertex 2 7.16315 6.42013
    vertex 1.8 6.95352 6.44362
  endloop
endfacet
facet normal 0.694706 -0.686764 -0.213867
  outer loop
    vertex 1.8 6.95352 6.44362
    vertex 2 7.16315 6.42013
    vertex 2 7.02206 6.87318
  endloop
endfacet
facet normal 0.719855 -0.654666 -0.230697
  outer loop
    vertex 1.8 6.95352 6.44362
    vertex 2 7.02206 6.87318
    vertex 1.8 6.80315 6.87034
  endloop
endfacet
facet normal 0.691773 -0.627362 -0.357586
  outer loop
    vertex 1.8 6.80315 6.87034
    vertex 2 7.02206 6.87318
    vertex 2 6.78696 7.28565
  endloop
endfacet
facet normal 0.722311 -0.583886 -0.370599
  outer loop
    vertex 1.8 6.80315 6.87034
    vertex 2 6.78696 7.28565
    vertex 1.8 6.5606 7.25249
  endloop
endfacet
facet normal 0.68924 -0.537842 -0.485463
  outer loop
    vertex 1.8 6.5606 7.25249
    vertex 2 6.78696 7.28565
    vertex 2 6.4689 7.63803
  endloop
endfacet
facet normal 0.724318 -0.484141 -0.490888
  outer loop
    vertex 1.8 6.5606 7.25249
    vertex 2 6.4689 7.63803
    vertex 1.8 6.23841 7.57025
  endloop
endfacet
facet normal 0.68712 -0.422383 -0.59115
  outer loop
    vertex 1.8 6.23841 7.57025
    vertex 2 6.4689 7.63803
    vertex 2 6.08285 7.91386
  endloop
endfacet
facet normal 0.725895 -0.360553 -0.585728
  outer loop
    vertex 1.8 6.23841 7.57025
    vertex 2 6.08285 7.91386
    vertex 1.8 5.85324 7.80735
  endloop
endfacet
facet normal 0.685425 -0.286476 -0.669421
  outer loop
    vertex 1.8 5.85324 7.80735
    vertex 2 6.08285 7.91386
    vertex 2 5.64688 8.10043
  endloop
endfacet
facet normal 0.68416 -0.136629 -0.71642
  outer loop
    vertex 2 5.64688 8.10043
    vertex 2 5.1813 8.18923
    vertex 1.8 5.42488 7.95178
  endloop
endfacet
facet normal 0.727063 -0.219364 -0.650584
  outer loop
    vertex 1.8 5.85324 7.80735
    vertex 2 5.64688 8.10043
    vertex 1.8 5.42488 7.95178
  endloop
endfacet
facet normal 0.683332 0.0199814 -0.729834
  outer loop
    vertex 2 5.1813 8.18923
    vertex 2 4.70766 8.17626
    vertex 1.8 4.97522 7.99633
  endloop
endfacet
facet normal 0.727839 -0.0676087 -0.682407
  outer loop
    vertex 1.8 5.42488 7.95178
    vertex 2 5.1813 8.18923
    vertex 1.8 4.97522 7.99633
  endloop
endfacet
facet normal 0.728235 0.0872251 -0.679754
  outer loop
    vertex 1.8 4.97522 7.99633
    vertex 2 4.70766 8.17626
    vertex 1.8 4.52717 7.93883
  endloop
endfacet
facet normal 0.682948 0.175855 -0.708983
  outer loop
    vertex 2 4.70766 8.17626
    vertex 2 4.24789 8.06222
    vertex 1.8 4.52717 7.93883
  endloop
endfacet
facet normal 0.728258 0.237533 -0.642821
  outer loop
    vertex 1.8 4.52717 7.93883
    vertex 2 4.24789 8.06222
    vertex 1.8 4.10351 7.78228
  endloop
endfacet
facet normal 0.683015 0.323519 -0.654848
  outer loop
    vertex 2 4.24789 8.06222
    vertex 2 3.82323 7.85242
    vertex 1.8 4.10351 7.78228
  endloop
endfacet
facet normal 0.727905 0.375922 -0.573443
  outer loop
    vertex 1.8 4.10351 7.78228
    vertex 2 3.82323 7.85242
    vertex 1.8 3.7258 7.53467
  endloop
endfacet
facet normal 0.683541 0.455882 -0.570038
  outer loop
    vertex 2 3.82323 7.85242
    vertex 2 3.45333 7.5566
    vertex 1.8 3.7258 7.53467
  endloop
endfacet
facet normal 0.684522 0.566608 -0.458677
  outer loop
    vertex 2 3.45333 7.5566
    vertex 2 3.15533 7.18847
    vertex 1.8 3.41327 7.20864
  endloop
endfacet
facet normal 0.727175 0.495558 -0.475014
  outer loop
    vertex 1.8 3.7258 7.53467
    vertex 2 3.45333 7.5566
    vertex 1.8 3.41327 7.20864
  endloop
endfacet
facet normal 0.726071 0.590507 -0.35231
  outer loop
    vertex 1.8 3.41327 7.20864
    vertex 2 3.15533 7.18847
    vertex 1.8 3.18188 6.82079
  endloop
endfacet
facet normal 0.685958 0.650447 -0.326161
  outer loop
    vertex 2 3.15533 7.18847
    vertex 2 2.94302 6.76508
    vertex 1.8 3.18188 6.82079
  endloop
endfacet
facet normal 0.687837 0.703461 -0.17895
  outer loop
    vertex 2 2.94302 6.76508
    vertex 2 2.82625 6.30606
    vertex 1.8 3.0434 6.39091
  endloop
endfacet
facet normal 0.724576 0.655998 -0.211321
  outer loop
    vertex 1.8 3.18188 6.82079
    vertex 2 2.94302 6.76508
    vertex 1.8 3.0434 6.39091
  endloop
endfacet
facet normal 0.690148 0.723265 -0.0241557
  outer loop
    vertex 2 2.82625 6.30606
    vertex 2 2.81044 5.83266
    vertex 1.8 3.0049 5.94092
  endloop
endfacet
facet normal 0.722691 0.688655 -0.0589145
  outer loop
    vertex 1.8 3.0434 6.39091
    vertex 2 2.82625 6.30606
    vertex 1.8 3.0049 5.94092
  endloop
endfacet
facet normal 0.692875 0.709102 0.130757
  outer loop
    vertex 2 2.81044 5.83266
    vertex 2 2.89634 5.36681
    vertex 1.8 3.06836 5.49374
  endloop
endfacet
facet normal 0.720399 0.686679 0.097451
  outer loop
    vertex 1.8 3.0049 5.94092
    vertex 2 2.81044 5.83266
    vertex 1.8 3.06836 5.49374
  endloop
endfacet
facet normal 0.695999 0.661889 0.278368
  outer loop
    vertex 2 2.89634 5.36681
    vertex 2 3.08003 4.93005
    vertex 1.8 3.23059 5.07212
  endloop
endfacet
facet normal 0.717687 0.649916 0.250069
  outer loop
    vertex 1.8 3.06836 5.49374
    vertex 2 2.89634 5.36681
    vertex 1.8 3.23059 5.07212
  endloop
endfacet
facet normal 0.699501 0.584134 0.411688
  outer loop
    vertex 2 3.08003 4.93005
    vertex 2 3.35308 4.54263
    vertex 1.8 3.48339 4.69755
  endloop
endfacet
facet normal 0.714537 0.579881 0.391376
  outer loop
    vertex 1.8 3.23059 5.07212
    vertex 2 3.08003 4.93005
    vertex 1.8 3.48339 4.69755
  endloop
endfacet
facet normal 0.703362 0.479803 0.524472
  outer loop
    vertex 2 3.35308 4.54263
    vertex 2 3.70297 4.22254
    vertex 1.8 3.81401 4.38917
  endloop
endfacet
facet normal 0.710923 0.479691 0.514281
  outer loop
    vertex 1.8 3.48339 4.69755
    vertex 2 3.35308 4.54263
    vertex 1.8 3.81401 4.38917
  endloop
endfacet
facet normal 0.706835 0.354493 0.612142
  outer loop
    vertex 1.8 3.81401 4.38917
    vertex 2 3.70297 4.22254
    vertex 2 4.11357 3.98476
  endloop
endfacet
facet normal 0.707575 0.353568 0.611823
  outer loop
    vertex 1.8 3.81401 4.38917
    vertex 2 4.11357 3.98476
    vertex 1.8 4.20567 4.16283
  endloop
endfacet
facet normal 0.702901 0.216151 0.67765
  outer loop
    vertex 1.8 4.20567 4.16283
    vertex 2 4.11357 3.98476
    vertex 2 4.56581 3.84051
  endloop
endfacet
facet normal 0.711819 0.205743 0.671554
  outer loop
    vertex 1.8 4.20567 4.16283
    vertex 2 4.56581 3.84051
    vertex 1.8 4.63838 4.03027
  endloop
endfacet
facet normal 0.699299 0.0660767 0.711769
  outer loop
    vertex 1.8 4.63838 4.03027
    vertex 2 4.56581 3.84051
    vertex 2 5.03854 3.79662
  endloop
endfacet
facet normal 0.715557 0.0492217 0.696818
  outer loop
    vertex 1.8 4.63838 4.03027
    vertex 2 5.03854 3.79662
    vertex 1.8 5.08985 3.99838
  endloop
endfacet
facet normal 0.696054 -0.0885121 0.712513
  outer loop
    vertex 1.8 5.08985 3.99838
    vertex 2 5.03854 3.79662
    vertex 2 5.50943 3.85512
  endloop
endfacet
facet normal 0.71879 -0.10814 0.686765
  outer loop
    vertex 1.8 5.08985 3.99838
    vertex 2 5.50943 3.85512
    vertex 1.8 5.53662 4.06873
  endloop
endfacet
facet normal 0.693202 -0.240039 0.679598
  outer loop
    vertex 1.8 5.53662 4.06873
    vertex 2 5.50943 3.85512
    vertex 2 5.95614 4.0129
  endloop
endfacet
facet normal 0.721507 -0.258491 0.642347
  outer loop
    vertex 1.8 5.53662 4.06873
    vertex 2 5.95614 4.0129
    vertex 1.8 5.95539 4.23724
  endloop
endfacet
facet normal 0.690786 -0.380978 0.614549
  outer loop
    vertex 1.8 5.95539 4.23724
    vertex 2 5.95614 4.0129
    vertex 2 6.35751 4.26172
  endloop
endfacet
facet normal 0.723692 -0.394408 0.566314
  outer loop
    vertex 1.8 5.95539 4.23724
    vertex 2 6.35751 4.26172
    vertex 1.8 6.3244 4.49424
  endloop
endfacet
facet normal 0.688856 -0.504337 0.520693
  outer loop
    vertex 1.8 6.3244 4.49424
    vertex 2 6.35751 4.26172
    vertex 2 6.69493 4.58854
  endloop
endfacet
facet normal 0.700817 -0.57491 0.422296
  outer loop
    vertex 2 6.69493 4.58854
    vertex 2 6.85335 4.80421
    vertex 1.8 6.59605 4.78584
  endloop
endfacet
facet normal 0.718883 -0.508618 0.47383
  outer loop
    vertex 1.8 6.3244 4.49424
    vertex 2 6.69493 4.58854
    vertex 1.8 6.59605 4.78584
  endloop
endfacet
facet normal 0.706937 -0.616642 0.346399
  outer loop
    vertex 2 6.85335 4.80421
    vertex 2 6.98441 5.03752
    vertex 1.8 6.80416 5.12481
  endloop
endfacet
facet normal 0.723575 -0.588234 0.361137
  outer loop
    vertex 1.8 6.59605 4.78584
    vertex 2 6.85335 4.80421
    vertex 1.8 6.80416 5.12481
  endloop
endfacet
facet normal 0.56339 -0.432305 0.704062
  outer loop
    vertex 4.26795 6 1.8
    vertex 4.58579 6.41421 1.8
    vertex 4.44437 6.55563 2
  endloop
endfacet
facet normal 0.656083 -0.271758 0.704062
  outer loop
    vertex 4.06815 5.51764 1.8
    vertex 4.09474 6.1 2
    vertex 3.87496 5.5694 2
  endloop
endfacet
facet normal 0.656082 -0.271758 0.704062
  outer loop
    vertex 4.06815 5.51764 1.8
    vertex 4.26795 6 1.8
    vertex 4.09474 6.1 2
  endloop
endfacet
facet normal -0.704063 -0.0926913 0.704062
  outer loop
    vertex 7.93185 5.51764 1.8
    vertex 8 5 1.8
    vertex 8.2 5 2
  endloop
endfacet
facet normal -0.704063 -0.0926909 0.704063
  outer loop
    vertex 7.93185 5.51764 1.8
    vertex 8.2 5 2
    vertex 8.12504 5.5694 2
  endloop
endfacet
facet normal 0.704063 -0.0926918 0.704063
  outer loop
    vertex 4 5 1.8
    vertex 3.87496 5.5694 2
    vertex 3.8 5 2
  endloop
endfacet
facet normal 0.704063 -0.0926914 0.704062
  outer loop
    vertex 4 5 1.8
    vertex 4.06815 5.51764 1.8
    vertex 3.87496 5.5694 2
  endloop
endfacet
facet normal -0.656082 -0.271759 0.704062
  outer loop
    vertex 7.73205 6 1.8
    vertex 8.12504 5.5694 2
    vertex 7.90526 6.1 2
  endloop
endfacet
facet normal -0.656082 -0.271758 0.704063
  outer loop
    vertex 7.73205 6 1.8
    vertex 7.93185 5.51764 1.8
    vertex 8.12504 5.5694 2
  endloop
endfacet
facet normal 0.704063 0.0926919 0.704062
  outer loop
    vertex 4.06815 4.48236 1.8
    vertex 3.8 5 2
    vertex 3.87496 4.4306 2
  endloop
endfacet
facet normal 0.704063 0.0926913 0.704063
  outer loop
    vertex 4.06815 4.48236 1.8
    vertex 4 5 1.8
    vertex 3.8 5 2
  endloop
endfacet
facet normal -0.563391 -0.432304 0.704062
  outer loop
    vertex 7.41421 6.41421 1.8
    vertex 7.90526 6.1 2
    vertex 7.55563 6.55563 2
  endloop
endfacet
facet normal 0.656082 0.271758 0.704062
  outer loop
    vertex 4.26795 4 1.8
    vertex 3.87496 4.4306 2
    vertex 4.09474 3.9 2
  endloop
endfacet
facet normal -0.563391 -0.432305 0.704062
  outer loop
    vertex 7.41421 6.41421 1.8
    vertex 7.73205 6 1.8
    vertex 7.90526 6.1 2
  endloop
endfacet
facet normal 0.656083 0.271759 0.704062
  outer loop
    vertex 4.26795 4 1.8
    vertex 4.06815 4.48236 1.8
    vertex 3.87496 4.4306 2
  endloop
endfacet
facet normal 0.563391 0.432305 0.704062
  outer loop
    vertex 4.44437 3.44437 2
    vertex 4.26795 4 1.8
    vertex 4.09474 3.9 2
  endloop
endfacet
facet normal -0.432305 -0.563391 0.704062
  outer loop
    vertex 7 6.73205 1.8
    vertex 7.55563 6.55563 2
    vertex 7.1 6.90526 2
  endloop
endfacet
facet normal 0.56339 0.432305 0.704062
  outer loop
    vertex 4.58579 3.58579 1.8
    vertex 4.26795 4 1.8
    vertex 4.44437 3.44437 2
  endloop
endfacet
facet normal -0.432305 -0.56339 0.704062
  outer loop
    vertex 7 6.73205 1.8
    vertex 7.41421 6.41421 1.8
    vertex 7.55563 6.55563 2
  endloop
endfacet
facet normal -0.271758 -0.656082 0.704062
  outer loop
    vertex 6.5694 7.12504 2
    vertex 7 6.73205 1.8
    vertex 7.1 6.90526 2
  endloop
endfacet
facet normal 0.432305 0.56339 0.704062
  outer loop
    vertex 5 3.26795 1.8
    vertex 4.58579 3.58579 1.8
    vertex 4.44437 3.44437 2
  endloop
endfacet
facet normal 0.432305 0.563391 0.704062
  outer loop
    vertex 5 3.26795 1.8
    vertex 4.44437 3.44437 2
    vertex 4.9 3.09474 2
  endloop
endfacet
facet normal -0.271759 -0.656083 0.704062
  outer loop
    vertex 6.51764 6.93185 1.8
    vertex 7 6.73205 1.8
    vertex 6.5694 7.12504 2
  endloop
endfacet
facet normal 0.271758 0.656082 0.704062
  outer loop
    vertex 5.4306 2.87496 2
    vertex 5 3.26795 1.8
    vertex 4.9 3.09474 2
  endloop
endfacet
facet normal 0.271758 0.656082 0.704062
  outer loop
    vertex 5.48236 3.06815 1.8
    vertex 5 3.26795 1.8
    vertex 5.4306 2.87496 2
  endloop
endfacet
facet normal -0.0926916 -0.704063 0.704062
  outer loop
    vertex 6 7 1.8
    vertex 6.5694 7.12504 2
    vertex 6 7.2 2
  endloop
endfacet
facet normal -0.0926914 -0.704063 0.704062
  outer loop
    vertex 6 7 1.8
    vertex 6.51764 6.93185 1.8
    vertex 6.5694 7.12504 2
  endloop
endfacet
facet normal 0.0926918 0.704063 0.704062
  outer loop
    vertex 6 2.8 2
    vertex 5.48236 3.06815 1.8
    vertex 5.4306 2.87496 2
  endloop
endfacet
facet normal 0.0926916 0.704063 0.704063
  outer loop
    vertex 6 3 1.8
    vertex 5.48236 3.06815 1.8
    vertex 6 2.8 2
  endloop
endfacet
facet normal 0.0926916 -0.704063 0.704062
  outer loop
    vertex 5.4306 7.12504 2
    vertex 6 7 1.8
    vertex 6 7.2 2
  endloop
endfacet
facet normal 0.0926914 -0.704063 0.704062
  outer loop
    vertex 5.48236 6.93185 1.8
    vertex 6 7 1.8
    vertex 5.4306 7.12504 2
  endloop
endfacet
facet normal 0.271758 -0.656082 0.704062
  outer loop
    vertex 5 6.73205 1.8
    vertex 5.4306 7.12504 2
    vertex 4.9 6.90526 2
  endloop
endfacet
facet normal 0.271759 -0.656083 0.704062
  outer loop
    vertex 5 6.73205 1.8
    vertex 5.48236 6.93185 1.8
    vertex 5.4306 7.12504 2
  endloop
endfacet
facet normal 0.432304 -0.563391 0.704062
  outer loop
    vertex 4.58579 6.41421 1.8
    vertex 4.9 6.90526 2
    vertex 4.44437 6.55563 2
  endloop
endfacet
facet normal 0.432305 -0.563391 0.704062
  outer loop
    vertex 4.58579 6.41421 1.8
    vertex 5 6.73205 1.8
    vertex 4.9 6.90526 2
  endloop
endfacet
facet normal 0.563391 -0.432305 0.704062
  outer loop
    vertex 4.26795 6 1.8
    vertex 4.44437 6.55563 2
    vertex 4.09474 6.1 2
  endloop
endfacet
facet normal -0.0926916 0.704063 0.704063
  outer loop
    vertex 6.51764 3.06815 1.8
    vertex 6 3 1.8
    vertex 6 2.8 2
  endloop
endfacet
facet normal -0.0926918 0.704063 0.704062
  outer loop
    vertex 6.51764 3.06815 1.8
    vertex 6 2.8 2
    vertex 6.5694 2.87496 2
  endloop
endfacet
facet normal -0.271758 0.656082 0.704062
  outer loop
    vertex 7 3.26795 1.8
    vertex 6.5694 2.87496 2
    vertex 7.1 3.09474 2
  endloop
endfacet
facet normal -0.271758 0.656082 0.704062
  outer loop
    vertex 7 3.26795 1.8
    vertex 6.51764 3.06815 1.8
    vertex 6.5694 2.87496 2
  endloop
endfacet
facet normal -0.432304 0.563391 0.704062
  outer loop
    vertex 7.41421 3.58579 1.8
    vertex 7.1 3.09474 2
    vertex 7.55563 3.44437 2
  endloop
endfacet
facet normal -0.432305 0.563391 0.704062
  outer loop
    vertex 7.41421 3.58579 1.8
    vertex 7 3.26795 1.8
    vertex 7.1 3.09474 2
  endloop
endfacet
facet normal -0.563391 0.432305 0.704062
  outer loop
    vertex 7.73205 4 1.8
    vertex 7.55563 3.44437 2
    vertex 7.90526 3.9 2
  endloop
endfacet
facet normal -0.56339 0.432305 0.704062
  outer loop
    vertex 7.73205 4 1.8
    vertex 7.41421 3.58579 1.8
    vertex 7.55563 3.44437 2
  endloop
endfacet
facet normal -0.656082 0.271758 0.704063
  outer loop
    vertex 7.93185 4.48236 1.8
    vertex 7.90526 3.9 2
    vertex 8.12504 4.4306 2
  endloop
endfacet
facet normal -0.656082 0.271758 0.704062
  outer loop
    vertex 7.93185 4.48236 1.8
    vertex 7.73205 4 1.8
    vertex 7.90526 3.9 2
  endloop
endfacet
facet normal -0.704063 0.0926909 0.704063
  outer loop
    vertex 8.2 5 2
    vertex 7.93185 4.48236 1.8
    vertex 8.12504 4.4306 2
  endloop
endfacet
facet normal -0.704063 0.0926913 0.704062
  outer loop
    vertex 8 5 1.8
    vertex 7.93185 4.48236 1.8
    vertex 8.2 5 2
  endloop
endfacet
facet normal 0.793353 -0.608761 0
  outer loop
    vertex 4.26795 6 0.2
    vertex 4.58579 6.41421 0.2
    vertex 4.26795 6 1.8
  endloop
endfacet
facet normal -0.608761 0.793353 0
  outer loop
    vertex 7 3.26795 0.2
    vertex 7 3.26795 1.8
    vertex 7.41421 3.58579 1.8
  endloop
endfacet
facet normal -0.608761 0.793353 0
  outer loop
    vertex 7.41421 3.58579 0.2
    vertex 7 3.26795 0.2
    vertex 7.41421 3.58579 1.8
  endloop
endfacet
facet normal 0.793353 -0.608761 0
  outer loop
    vertex 4.58579 6.41421 0.2
    vertex 4.58579 6.41421 1.8
    vertex 4.26795 6 1.8
  endloop
endfacet
facet normal -0.793353 0.608761 0
  outer loop
    vertex 7.41421 3.58579 0.2
    vertex 7.41421 3.58579 1.8
    vertex 7.73205 4 1.8
  endloop
endfacet
facet normal 0.923879 -0.382684 0
  outer loop
    vertex 4.06815 5.51764 0.2
    vertex 4.26795 6 0.2
    vertex 4.06815 5.51764 1.8
  endloop
endfacet
facet normal -0.793353 0.608761 0
  outer loop
    vertex 7.73205 4 0.2
    vertex 7.41421 3.58579 0.2
    vertex 7.73205 4 1.8
  endloop
endfacet
facet normal -0.991445 -0.130526 0
  outer loop
    vertex 8 5 0.2
    vertex 8 5 1.8
    vertex 7.93185 5.51764 1.8
  endloop
endfacet
facet normal -0.991445 -0.130526 0
  outer loop
    vertex 7.93185 5.51764 0.2
    vertex 8 5 0.2
    vertex 7.93185 5.51764 1.8
  endloop
endfacet
facet normal 0.923879 -0.382684 0
  outer loop
    vertex 4.26795 6 0.2
    vertex 4.26795 6 1.8
    vertex 4.06815 5.51764 1.8
  endloop
endfacet
facet normal -0.923879 0.382684 0
  outer loop
    vertex 7.73205 4 0.2
    vertex 7.73205 4 1.8
    vertex 7.93185 4.48236 0.2
  endloop
endfacet
facet normal -0.923879 0.382684 0
  outer loop
    vertex 7.93185 4.48236 0.2
    vertex 7.73205 4 1.8
    vertex 7.93185 4.48236 1.8
  endloop
endfacet
facet normal -0.923879 -0.382684 0
  outer loop
    vertex 7.73205 6 0.2
    vertex 7.93185 5.51764 0.2
    vertex 7.73205 6 1.8
  endloop
endfacet
facet normal 0.991445 -0.130526 0
  outer loop
    vertex 4 5 0.2
    vertex 4.06815 5.51764 0.2
    vertex 4 5 1.8
  endloop
endfacet
facet normal -0.923879 -0.382684 0
  outer loop
    vertex 7.93185 5.51764 0.2
    vertex 7.93185 5.51764 1.8
    vertex 7.73205 6 1.8
  endloop
endfacet
facet normal 0.991445 -0.130526 0
  outer loop
    vertex 4.06815 5.51764 0.2
    vertex 4.06815 5.51764 1.8
    vertex 4 5 1.8
  endloop
endfacet
facet normal -0.991445 0.130526 0
  outer loop
    vertex 8 5 0.2
    vertex 7.93185 4.48236 0.2
    vertex 8 5 1.8
  endloop
endfacet
facet normal -0.991445 0.130526 0
  outer loop
    vertex 7.93185 4.48236 0.2
    vertex 7.93185 4.48236 1.8
    vertex 8 5 1.8
  endloop
endfacet
facet normal 0.991445 0.130526 -0
  outer loop
    vertex 4.06815 4.48236 0.2
    vertex 4 5 0.2
    vertex 4.06815 4.48236 1.8
  endloop
endfacet
facet normal -0.793353 -0.608761 0
  outer loop
    vertex 7.41421 6.41421 0.2
    vertex 7.73205 6 0.2
    vertex 7.41421 6.41421 1.8
  endloop
endfacet
facet normal 0.991445 0.130526 -0
  outer loop
    vertex 4 5 0.2
    vertex 4 5 1.8
    vertex 4.06815 4.48236 1.8
  endloop
endfacet
facet normal -0.793353 -0.608761 0
  outer loop
    vertex 7.73205 6 0.2
    vertex 7.73205 6 1.8
    vertex 7.41421 6.41421 1.8
  endloop
endfacet
facet normal 0.923879 0.382684 -0
  outer loop
    vertex 4.06815 4.48236 0.2
    vertex 4.06815 4.48236 1.8
    vertex 4.26795 4 1.8
  endloop
endfacet
facet normal 0.923879 0.382684 -0
  outer loop
    vertex 4.26795 4 0.2
    vertex 4.06815 4.48236 0.2
    vertex 4.26795 4 1.8
  endloop
endfacet
facet normal -0.608761 -0.793353 0
  outer loop
    vertex 7 6.73205 0.2
    vertex 7.41421 6.41421 0.2
    vertex 7 6.73205 1.8
  endloop
endfacet
facet normal -0.608761 -0.793353 0
  outer loop
    vertex 7.41421 6.41421 0.2
    vertex 7.41421 6.41421 1.8
    vertex 7 6.73205 1.8
  endloop
endfacet
facet normal 0.793353 0.608761 -0
  outer loop
    vertex 4.26795 4 0.2
    vertex 4.26795 4 1.8
    vertex 4.58579 3.58579 1.8
  endloop
endfacet
facet normal 0.793353 0.608761 -0
  outer loop
    vertex 4.58579 3.58579 0.2
    vertex 4.26795 4 0.2
    vertex 4.58579 3.58579 1.8
  endloop
endfacet
facet normal -0.382684 -0.923879 0
  outer loop
    vertex 6.51764 6.93185 0.2
    vertex 7 6.73205 0.2
    vertex 6.51764 6.93185 1.8
  endloop
endfacet
facet normal -0.382684 -0.923879 0
  outer loop
    vertex 7 6.73205 0.2
    vertex 7 6.73205 1.8
    vertex 6.51764 6.93185 1.8
  endloop
endfacet
facet normal 0.608761 0.793353 -0
  outer loop
    vertex 4.58579 3.58579 0.2
    vertex 4.58579 3.58579 1.8
    vertex 5 3.26795 1.8
  endloop
endfacet
facet normal 0.608761 0.793353 -0
  outer loop
    vertex 5 3.26795 0.2
    vertex 4.58579 3.58579 0.2
    vertex 5 3.26795 1.8
  endloop
endfacet
facet normal -0.130526 -0.991445 0
  outer loop
    vertex 6 7 0.2
    vertex 6.51764 6.93185 0.2
    vertex 6 7 1.8
  endloop
endfacet
facet normal -0.130526 -0.991445 0
  outer loop
    vertex 6.51764 6.93185 0.2
    vertex 6.51764 6.93185 1.8
    vertex 6 7 1.8
  endloop
endfacet
facet normal 0.382683 0.92388 -0
  outer loop
    vertex 5.48236 3.06815 0.2
    vertex 5 3.26795 0.2
    vertex 5.48236 3.06815 1.8
  endloop
endfacet
facet normal 0.382683 0.92388 -0
  outer loop
    vertex 5 3.26795 0.2
    vertex 5 3.26795 1.8
    vertex 5.48236 3.06815 1.8
  endloop
endfacet
facet normal 0.130526 -0.991445 0
  outer loop
    vertex 5.48236 6.93185 0.2
    vertex 6 7 0.2
    vertex 5.48236 6.93185 1.8
  endloop
endfacet
facet normal 0.130526 0.991445 -0
  outer loop
    vertex 6 3 0.2
    vertex 5.48236 3.06815 0.2
    vertex 6 3 1.8
  endloop
endfacet
facet normal 0.130526 -0.991445 0
  outer loop
    vertex 6 7 0.2
    vertex 6 7 1.8
    vertex 5.48236 6.93185 1.8
  endloop
endfacet
facet normal 0.130526 0.991445 -0
  outer loop
    vertex 5.48236 3.06815 0.2
    vertex 5.48236 3.06815 1.8
    vertex 6 3 1.8
  endloop
endfacet
facet normal 0.382684 -0.923879 0
  outer loop
    vertex 5 6.73205 0.2
    vertex 5.48236 6.93185 0.2
    vertex 5 6.73205 1.8
  endloop
endfacet
facet normal -0.130526 0.991445 0
  outer loop
    vertex 6 3 0.2
    vertex 6 3 1.8
    vertex 6.51764 3.06815 1.8
  endloop
endfacet
facet normal 0.382684 -0.923879 0
  outer loop
    vertex 5.48236 6.93185 0.2
    vertex 5.48236 6.93185 1.8
    vertex 5 6.73205 1.8
  endloop
endfacet
facet normal -0.130526 0.991445 0
  outer loop
    vertex 6.51764 3.06815 0.2
    vertex 6 3 0.2
    vertex 6.51764 3.06815 1.8
  endloop
endfacet
facet normal 0.608761 -0.793353 0
  outer loop
    vertex 4.58579 6.41421 0.2
    vertex 5 6.73205 0.2
    vertex 4.58579 6.41421 1.8
  endloop
endfacet
facet normal -0.382683 0.92388 0
  outer loop
    vertex 6.51764 3.06815 0.2
    vertex 6.51764 3.06815 1.8
    vertex 7 3.26795 1.8
  endloop
endfacet
facet normal 0.608761 -0.793353 0
  outer loop
    vertex 5 6.73205 0.2
    vertex 5 6.73205 1.8
    vertex 4.58579 6.41421 1.8
  endloop
endfacet
facet normal -0.382683 0.92388 0
  outer loop
    vertex 7 3.26795 0.2
    vertex 6.51764 3.06815 0.2
    vertex 7 3.26795 1.8
  endloop
endfacet
endsolid Created by Gmsh
